<svg width="41" height="35" viewBox="0 0 41 35" fill="none" xmlns="http://www.w3.org/2000/svg">
<path fill-rule="evenodd" clip-rule="evenodd" d="M38.3904 12.045L34.2944 4.03112C34.0431 3.53935 33.4407 3.34445 32.9489 3.5958C32.4571 3.84715 32.2622 4.44957 32.5136 4.94135L35.5108 10.8056L3.80782 0.548703C3.28235 0.378699 2.71856 0.666859 2.54856 1.19233C2.37855 1.7178 2.66671 2.28159 3.19218 2.45159L34.8952 12.7084L29.031 15.7057C28.5392 15.9571 28.3443 16.5595 28.5957 17.0513C28.847 17.543 29.4494 17.7379 29.9412 17.4866L37.9551 13.3906C38.4469 13.1392 38.6418 12.5368 38.3904 12.045ZM3.5 12.5001C1.84315 12.5001 0.5 13.8433 0.5 15.5001V31.5001C0.5 33.157 1.84315 34.5001 3.5 34.5001H7.5C9.15685 34.5001 10.5 33.157 10.5 31.5001V15.5001C10.5 13.8433 9.15685 12.5001 7.5 12.5001H3.5ZM18.5 17.5001C16.8431 17.5001 15.5 18.8433 15.5 20.5001V31.5001C15.5 33.157 16.8431 34.5001 18.5 34.5001H22.5C24.1569 34.5001 25.5 33.157 25.5 31.5001V20.5001C25.5 18.8433 24.1569 17.5001 22.5 17.5001H18.5ZM30.5 25.5001C30.5 23.8433 31.8431 22.5001 33.5 22.5001H37.5C39.1569 22.5001 40.5 23.8433 40.5 25.5001V31.5001C40.5 33.157 39.1569 34.5001 37.5 34.5001H33.5C31.8431 34.5001 30.5 33.157 30.5 31.5001V25.5001Z" fill="#0063FC"/>
</svg>
