<svg width="41" height="37" viewBox="0 0 41 37" fill="none" xmlns="http://www.w3.org/2000/svg">
<path fill-rule="evenodd" clip-rule="evenodd" d="M37.9315 4.03955L29.8122 0.156447C29.314 -0.0818389 28.7169 0.128891 28.4787 0.627126C28.2404 1.12536 28.4511 1.72243 28.9493 1.96072L34.8906 4.80219L3.16718 15.9987C2.64638 16.1825 2.3732 16.7537 2.55701 17.2745C2.74082 17.7953 3.31202 18.0685 3.83282 17.8847L35.5562 6.68817L32.7148 12.6294C32.4765 13.1277 32.6872 13.7247 33.1854 13.963C33.6837 14.2013 34.2807 13.9906 34.519 13.4923L38.4021 5.37313C38.6404 4.8749 38.4297 4.27783 37.9315 4.03955ZM37.5 14.9417C39.1569 14.9417 40.5 16.2848 40.5 17.9417V33.9417C40.5 35.5985 39.1569 36.9417 37.5 36.9417H33.5C31.8431 36.9417 30.5 35.5985 30.5 33.9417V17.9417C30.5 16.2848 31.8431 14.9417 33.5 14.9417H37.5ZM22.5 19.9417C24.1569 19.9417 25.5 21.2848 25.5 22.9417V33.9417C25.5 35.5985 24.1569 36.9417 22.5 36.9417H18.5C16.8431 36.9417 15.5 35.5985 15.5 33.9417V22.9417C15.5 21.2848 16.8431 19.9417 18.5 19.9417H22.5ZM10.5 27.9417C10.5 26.2848 9.15685 24.9417 7.5 24.9417H3.5C1.84315 24.9417 0.5 26.2848 0.5 27.9417V33.9417C0.5 35.5985 1.84315 36.9417 3.5 36.9417H7.5C9.15685 36.9417 10.5 35.5985 10.5 33.9417V27.9417Z" fill="#E00000"/>
</svg>
