<svg width="123" height="132" viewBox="0 0 123 132" fill="none" xmlns="http://www.w3.org/2000/svg">
<path d="M37.0836 77.8639C38.1882 77.8639 39.0836 78.7594 39.0836 79.8639V84.6979C39.0836 85.8025 38.1882 86.6979 37.0836 86.6979H2C0.895429 86.6979 0 85.8025 0 84.6979V79.8639C0 78.7594 0.895431 77.8639 2 77.8639H12.7863C13.3386 77.8639 13.7863 77.4162 13.7863 76.8639V73.9785C13.7863 73.4262 14.2341 72.9785 14.7863 72.9785H24.2973C24.8496 72.9785 25.2973 73.4262 25.2973 73.9785V76.8639C25.2973 77.4162 25.745 77.8639 26.2973 77.8639H37.0836ZM52.5749 86.3644C52.6294 87.5642 53.7216 88.4457 54.9059 88.2457L58.5678 87.6273C59.7882 87.4212 60.9008 88.3617 60.9008 89.5994V96.2088C60.9008 97.3134 60.0054 98.2088 58.9008 98.2088H55.5446C54.4082 98.2088 53.5002 99.1545 53.5462 100.29L54.124 114.532C54.1701 115.667 53.262 116.613 52.1257 116.613H45.6229C44.4819 116.613 43.5721 115.66 43.6251 114.52L44.9791 85.3909C45.0561 83.7351 44.7337 82.085 44.039 80.58C43.6994 79.844 43.4475 79.0707 43.2885 78.2759L43.0761 77.2139C43.0287 76.977 43.0004 76.7367 42.9915 76.4953C42.9335 74.9329 43.6875 73.4515 44.9849 72.579L45.1291 72.482C45.4546 72.2631 45.8055 72.0846 46.1741 71.9506L46.3661 71.8808C47.7446 71.3795 49.2521 71.3591 50.6436 71.823L50.9604 71.9286C51.4056 72.077 51.8263 72.2905 52.2088 72.5622L52.2902 72.62C53.4936 73.4746 54.2084 74.8592 54.2084 76.3351L53.9658 78.1651L53.9081 78.4763C53.7851 79.1388 53.6015 79.7887 53.3596 80.4176L53.2425 80.7221C52.6975 82.1391 52.4517 83.6537 52.5206 85.1704L52.5749 86.3644ZM19.5418 111.861C10.0386 111.861 2.00772 107.846 2.00772 100.083C2.00772 92.3195 10.0386 88.3041 19.5418 88.3041C29.045 88.3041 37.0759 92.3195 37.0759 100.083C37.0759 107.846 29.045 111.861 19.5418 111.861ZM19.5418 96.0411C15.4594 96.0411 13.0582 98.075 13.0582 100.083C13.0582 102.09 15.4594 104.466 19.5418 104.466C23.6242 104.466 26.1164 102.09 26.1164 100.083C26.1164 98.075 23.6242 96.0411 19.5418 96.0411ZM11.9091 115.839C12.9646 115.839 13.8383 116.659 13.9051 117.713L14.1243 121.17C14.1933 122.258 15.1209 123.09 16.2101 123.042L52.9217 121.392C54.0604 121.34 55.0115 122.25 55.0115 123.39V129.135C55.0115 130.24 54.1161 131.135 53.0115 131.135H5.74774C4.64317 131.135 3.74774 130.24 3.74774 129.135V122.335V117.839C3.74774 116.734 4.64317 115.839 5.74774 115.839H8.84589H11.9091Z" fill="#0063FC"/>
<path d="M106.47 8.3655C106.209 8.3655 106.081 8.04648 106.271 7.86625L113.832 0.668691C114.223 0.296121 114.84 0.301891 115.224 0.681721L122.442 7.81424C122.647 8.01661 122.504 8.3655 122.216 8.3655H120.873C120.317 8.3655 119.867 8.81933 119.873 9.37549L120.159 38.0258C120.176 39.6943 118.828 41.0558 117.16 41.0558H111.88C110.223 41.0558 108.88 39.7126 108.88 38.0558V9.14608C108.88 8.71498 108.53 8.3655 108.099 8.3655H106.47ZM87.9551 30.7924C86.634 29.8713 84.8323 30.1697 83.7463 31.3591C79.7559 35.7289 74.6075 38.8447 68.7769 39.895C67.0888 40.199 65.6466 38.8155 65.6466 37.1003V32.5449C65.6466 31.0246 66.7993 29.7778 68.2502 29.3239C75.1406 27.1684 80.0313 19.9163 81.0485 10.4502C81.2308 8.75333 82.6604 7.40965 84.3641 7.50986L89.7932 7.82922C91.3788 7.92249 92.6309 9.2377 92.5038 10.821C92.2992 13.3703 91.8207 15.8618 91.0966 18.2675C90.6965 19.5964 91.1539 21.0562 92.3058 21.8305L103.782 29.5446C105.232 30.5194 105.545 32.5226 104.462 33.8939L101.931 37.0981C100.947 38.3437 99.1633 38.6073 97.8612 37.6994L87.9551 30.7924ZM71.792 52.7675C70.1352 52.7675 68.792 51.4243 68.792 49.7675V46.0635C68.792 44.4067 70.1352 43.0635 71.792 43.0635H117.19C118.847 43.0635 120.19 44.4067 120.19 46.0635V61.8807C120.19 63.5376 118.847 64.8807 117.19 64.8807H111.679C110.022 64.8807 108.679 63.5376 108.679 61.8807V55.7675C108.679 54.1106 107.336 52.7675 105.679 52.7675H71.792Z" fill="#0063FC"/>
<path d="M54.4459 35.6089C53.7862 37.0521 52.1167 37.7319 50.6365 37.1601L30.5694 29.4082C29.5117 28.9996 28.3219 29.2318 27.4365 29.9402C21.7469 34.4927 14.015 37.3802 5.69411 37.9907C4.034 38.1125 2.67694 36.7559 2.67694 35.0913V30.7594C2.67694 29.1204 3.99556 27.799 5.62543 27.6262C11.2247 27.0327 16.5067 25.0128 20.1323 21.8923C21.8745 20.3927 20.5739 17.967 18.2752 17.967H6.6808C5.02395 17.967 3.6808 16.6238 3.6808 14.967V10.7276C3.6808 9.07075 5.02394 7.72761 6.6808 7.72761H52.2123C53.8691 7.72761 55.2123 9.07075 55.2123 10.7276V14.967C55.2123 16.6238 53.8691 17.967 52.2123 17.967H36.9952C36.374 17.967 35.8359 18.3964 35.6222 18.9797C35.3529 19.7143 35.6881 20.5436 36.4199 20.8203L54.5526 27.674C56.1768 28.2879 56.9422 30.1483 56.2203 31.7275L54.4459 35.6089ZM55.3577 42.2604C57.0146 42.2604 58.3577 43.6035 58.3577 45.2604V49.7005C58.3577 51.3574 57.0146 52.7005 55.3577 52.7005H38.202C36.5452 52.7005 35.202 54.0437 35.202 55.7005V62.5499C35.202 64.2068 33.8589 65.5499 32.202 65.5499H26.6911C25.0342 65.5499 23.6911 64.2068 23.6911 62.5499V55.7005C23.6911 54.0437 22.3479 52.7005 20.6911 52.7005H3.53537C1.87852 52.7005 0.53537 51.3574 0.53537 49.7005V45.2604C0.53537 43.6035 1.87852 42.2604 3.53537 42.2604H55.3577Z" fill="#0063FC"/>
<path fill-rule="evenodd" clip-rule="evenodd" d="M83.5823 74.0493C84.9717 74.0493 86.3045 74.1404 87.5731 74.3172C87.4368 75.63 87.5119 76.941 88.2309 77.5069C89.4585 78.473 91.1583 77.7156 92.0789 77.3054C92.3624 77.179 92.5721 77.0856 92.6712 77.0856C92.823 77.2373 92.8654 77.4847 92.9166 77.7834C93.0076 78.314 93.1264 79.0066 93.9349 79.613C94.8505 80.2997 95.9459 79.9175 96.6989 79.6548L96.6989 79.6548C96.9853 79.5549 97.2221 79.4723 97.3806 79.4723C97.3966 79.4752 97.4126 79.4776 97.4286 79.4794C97.6106 79.5412 97.4238 80.0025 97.1564 80.6626L97.1564 80.6626C96.6786 81.8422 95.9436 83.6568 96.5963 84.9622C97.4339 86.6373 100.787 86.9707 102.089 87.0371C102.154 87.6014 102.187 88.1802 102.187 88.7726C102.187 97.7404 94.6917 103.496 83.5823 103.496C72.4729 103.496 64.9774 97.7404 64.9774 88.7726C64.9774 79.8717 72.4729 74.0493 83.5823 74.0493ZM108.88 77.9824C108.88 75.7733 110.67 73.9824 112.88 73.9824H116.19C118.399 73.9824 120.19 75.7733 120.19 77.9824V99.5628C120.19 101.772 118.399 103.563 116.19 103.563H112.88C110.67 103.563 108.88 101.772 108.88 99.5628V77.9824ZM76.2207 88.7726C76.2207 92.1857 79.0984 94.3942 83.5823 94.3942C88.0662 94.3942 90.944 92.1857 90.944 88.7726C90.944 85.9957 89.0391 84.0162 85.9141 83.3747C85.9255 83.4353 85.9315 83.4978 85.9315 83.5616V84.9315C85.9315 85.4838 85.4838 85.9315 84.9315 85.9315H82.7192C82.1669 85.9315 81.7192 85.4838 81.7192 84.9315V83.5616C81.7192 83.4653 81.7328 83.3721 81.7583 83.284C78.3331 83.8084 76.2207 85.8484 76.2207 88.7726ZM109.08 109.318C109.08 107.248 110.758 105.571 112.828 105.571H115.19C117.951 105.571 120.19 107.809 120.19 110.571V129.136C120.19 130.24 119.294 131.136 118.19 131.136H71.7291C70.6245 131.136 69.7291 130.24 69.7291 129.136V110.571C69.7291 107.809 71.9676 105.571 74.7291 105.571H77.0907C79.1605 105.571 80.8384 107.248 80.8384 109.318H109.08ZM80.8384 121.171C80.8384 121.929 81.4085 122.568 82.1618 122.652C92.1099 123.767 98.1189 123.765 107.66 122.668C108.469 122.575 109.08 121.887 109.08 121.073C109.08 119.931 107.921 119.141 106.826 119.464C99.7553 121.555 89.4186 121.729 83.1252 119.643C82.0554 119.288 80.8384 120.044 80.8384 121.171Z" fill="#0063FC"/>
</svg>
