<svg width="54" height="54" viewBox="0 0 54 54" fill="none" xmlns="http://www.w3.org/2000/svg">
<circle cx="27" cy="27" r="27" fill="#FFE812"/>
<g clip-path="url(#clip0_119_783)">
<path d="M45.6923 42.7718C45.6938 43.1558 45.6193 43.5362 45.4731 43.8912C45.3268 44.2463 45.1118 44.5688 44.8403 44.8403C44.5688 45.1118 44.2462 45.3269 43.8912 45.4731C43.5362 45.6193 43.1558 45.6938 42.7718 45.6923H11.2282C10.8442 45.6938 10.4638 45.6193 10.1088 45.4731C9.75378 45.3269 9.43122 45.1118 9.15973 44.8403C8.88824 44.5688 8.67317 44.2463 8.52694 43.8912C8.3807 43.5362 8.30619 43.1558 8.3077 42.7718V11.2282C8.30619 10.8443 8.3807 10.4638 8.52694 10.1088C8.67317 9.75379 8.88824 9.43124 9.15973 9.15975C9.43122 8.88825 9.75378 8.67319 10.1088 8.52695C10.4638 8.38072 10.8442 8.30621 11.2282 8.30772H42.7718C43.1558 8.30621 43.5362 8.38072 43.8912 8.52695C44.2462 8.67319 44.5688 8.88825 44.8403 9.15975C45.1118 9.43124 45.3268 9.75379 45.4731 10.1088C45.6193 10.4638 45.6938 10.8443 45.6923 11.2282V42.7718Z" fill="#FFE812"/>
<path d="M27 13.5669C18.615 13.5669 11.8157 18.9287 11.8157 25.5455C11.8157 29.8235 14.6563 33.5711 18.9344 35.6987L17.3943 41.2032C17.3943 41.2032 17.3658 41.4599 17.5312 41.5568C17.6966 41.6538 17.8963 41.5797 17.8963 41.5797C18.3754 41.5112 23.4292 37.9576 24.3134 37.3415C25.1861 37.467 26.093 37.5297 27.0114 37.5297C35.3964 37.5297 42.1957 32.1679 42.1957 25.5512C42.1957 18.9344 35.385 13.5669 27 13.5669Z" fill="black"/>
<path d="M18.6036 29.7208C18.1187 29.7208 17.7251 29.3444 17.7251 28.8823V23.6745H16.3562C15.8827 23.6745 15.5005 23.2923 15.5005 22.8189C15.5005 22.3455 15.8884 21.9633 16.3562 21.9633H20.8453C21.3187 21.9633 21.7009 22.3455 21.7009 22.8189C21.7009 23.2923 21.313 23.6745 20.8453 23.6745H19.4763V28.8823C19.4763 29.3387 19.0827 29.7208 18.6036 29.7208ZM26.287 29.7094C25.9219 29.7094 25.6424 29.5611 25.5569 29.3216L25.1234 28.1807H22.4538L22.0203 29.3216C21.9348 29.5611 21.6553 29.7094 21.2902 29.7094C21.0963 29.7094 20.908 29.6695 20.7312 29.5954C20.4916 29.4813 20.2578 29.179 20.5259 28.3519L22.6193 22.836C22.7676 22.4139 23.2182 21.9804 23.7886 21.969C24.359 21.9576 24.8153 22.4139 24.9579 22.836L27.0513 28.3519C27.3194 29.179 27.0856 29.4927 26.846 29.5954C26.6749 29.6752 26.4809 29.7094 26.287 29.7094ZM24.6613 26.6292L23.7886 24.1422L22.9159 26.6292H24.6613ZM28.4602 29.5954C28.0039 29.5954 27.6217 29.236 27.6217 28.7968V22.836C27.6217 22.3512 28.021 21.9576 28.5173 21.9576C29.0135 21.9576 29.4128 22.3569 29.4128 22.836V27.9811H31.2724C31.7287 27.9811 32.1109 28.3405 32.1109 28.7797C32.1109 29.2189 31.7344 29.5782 31.2724 29.5782L28.4602 29.5954ZM33.3258 29.7094C32.841 29.7094 32.4474 29.3102 32.4474 28.831V22.8417C32.4474 22.3569 32.8467 21.9633 33.3258 21.9633C33.805 21.9633 34.2043 22.3626 34.2043 22.8417V24.7241L36.657 22.2713C36.7825 22.1458 36.9536 22.0774 37.1419 22.0774C37.3586 22.0774 37.5811 22.1686 37.7465 22.3341C37.9119 22.4995 37.9918 22.6763 38.0032 22.8873C38.0113 22.9854 37.9982 23.0841 37.9647 23.1766C37.9312 23.2691 37.8782 23.3534 37.8092 23.4235L35.8014 25.42L37.9576 28.272C38.1002 28.4545 38.1572 28.6884 38.1287 28.9223C38.1002 29.1561 37.9747 29.3615 37.7864 29.4927C37.6324 29.6068 37.4442 29.6638 37.2617 29.6638C36.9879 29.6638 36.7255 29.5383 36.5601 29.3216L34.5066 26.6007L34.2043 26.903V28.8139C34.2043 29.2987 33.805 29.6866 33.3258 29.6923V29.7094Z" fill="#FFE812"/>
</g>
<defs>
<clipPath id="clip0_119_783">
<rect width="37.3846" height="37.3846" fill="white" transform="translate(8.30768 8.30769)"/>
</clipPath>
</defs>
</svg>
