<svg width="122" height="33" viewBox="0 0 122 33" fill="none" xmlns="http://www.w3.org/2000/svg">
<path d="M81.3654 5.74539C81.9177 5.74539 82.3654 6.19311 82.3654 6.74539V9.06234C82.3654 9.61462 81.9177 10.0623 81.3654 10.0623H64.2662C63.7139 10.0623 63.2662 9.61462 63.2662 9.06234V6.74539C63.2662 6.19311 63.7139 5.74539 64.2662 5.74539H69.0032C69.5555 5.74539 70.0032 5.29768 70.0032 4.74539V4.35799C70.0032 3.8057 70.4509 3.35799 71.0032 3.35799H74.6283C75.1806 3.35799 75.6283 3.8057 75.6283 4.35799V4.74539C75.6283 5.29768 76.076 5.74539 76.6283 5.74539H81.3654ZM88.9883 10.5614C88.999 10.7959 89.2124 10.9681 89.4438 10.929L91.8604 10.521C92.4706 10.4179 93.0269 10.8882 93.0269 11.507V14.6874C93.0269 15.2397 92.5792 15.6874 92.0269 15.6874H90.433C89.8649 15.6874 89.4108 16.1603 89.4339 16.728L89.7143 23.6405C89.7373 24.2083 89.2833 24.6811 88.7151 24.6811H85.5847C85.0142 24.6811 84.5593 24.2045 84.5858 23.6346L85.2464 9.42364C85.284 8.61447 85.1264 7.80813 84.787 7.07265C84.621 6.71301 84.4979 6.33509 84.4202 5.94668L84.3164 5.42774C84.2933 5.31197 84.2794 5.19454 84.2751 5.07656C84.2467 4.31304 84.6152 3.58915 85.2492 3.16275L85.3197 3.11535C85.4787 3.00838 85.6502 2.92118 85.8303 2.85568L85.9241 2.82157C86.5978 2.57661 87.3345 2.56666 88.0145 2.79333L88.1693 2.84494C88.3868 2.91745 88.5924 3.02179 88.7794 3.15456L88.8191 3.1828C89.4072 3.60044 89.7565 4.27704 89.7565 4.99831L89.638 5.89256L89.6186 5.99674C89.5526 6.35237 89.4541 6.70118 89.3242 7.03878C89.0317 7.7994 88.8997 8.61235 88.9368 9.42645L88.9883 10.5614ZM72.8158 22.3591C68.1718 22.3591 64.2473 20.3968 64.2473 16.6032C64.2473 12.8095 68.1718 10.8472 72.8158 10.8472C77.4598 10.8472 81.3843 12.8095 81.3843 16.6032C81.3843 20.3968 77.4598 22.3591 72.8158 22.3591ZM72.8158 14.6281C70.8208 14.6281 69.6474 15.622 69.6474 16.6032C69.6474 17.5843 70.8208 18.7451 72.8158 18.7451C74.8107 18.7451 76.0286 17.5843 76.0286 16.6032C76.0286 15.622 74.8107 14.6281 72.8158 14.6281ZM69.0646 24.3029C69.5923 24.3029 70.0292 24.713 70.0626 25.2396L70.167 26.8858C70.2014 27.4299 70.6653 27.846 71.2099 27.8216L89.1041 27.0173C89.6734 26.9917 90.149 27.4464 90.149 28.0163V30.7779C90.149 31.3302 89.7012 31.7779 89.149 31.7779H66.0976C65.5453 31.7779 65.0976 31.3302 65.0976 30.7779V27.4773V25.3029C65.0976 24.7506 65.5453 24.3029 66.0976 24.3029H67.5889H69.0646Z" fill="#0063FC"/>
<path d="M51.7678 4.08802C51.6401 4.08802 51.5777 3.93212 51.6703 3.84404L55.0062 0.668691C55.3976 0.296121 56.0142 0.301891 56.3985 0.681721L59.5729 3.81863C59.673 3.91752 59.6029 4.08802 59.4622 4.08802H59.3225C58.7663 4.08802 58.317 4.54185 58.3226 5.09801L58.4621 19.053C58.4676 19.6091 58.0183 20.063 57.4621 20.063H53.9452C53.3929 20.063 52.9452 19.6152 52.9452 19.063V4.46947C52.9452 4.2588 52.7744 4.08802 52.5637 4.08802H51.7678ZM42.3525 14.7913C41.9121 14.4843 41.3104 14.5823 40.9603 14.9893C38.8654 17.4237 36.0614 19.1312 32.8644 19.5726C32.298 19.6508 31.8183 19.1914 31.8183 18.6197V15.4899C31.8183 14.9831 32.2003 14.5641 32.692 14.4417C36.3876 13.5218 38.9978 9.6676 39.3896 4.62238C39.4337 4.05522 39.9119 3.60793 40.4798 3.64134L44.0568 3.85175C44.5853 3.88284 45.0012 4.32091 44.9723 4.84959C44.889 6.37329 44.6051 7.85763 44.1455 9.27779C44.003 9.71794 44.1569 10.2048 44.5409 10.4629L50.8716 14.7184C51.3551 15.0434 51.4595 15.7111 51.0985 16.1682L49.2775 18.4734C48.9496 18.8886 48.3549 18.9765 47.9209 18.6739L42.3525 14.7913ZM34.3554 25.7862C33.8031 25.7862 33.3554 25.3385 33.3554 24.7862V22.0441C33.3554 21.4918 33.8031 21.0441 34.3554 21.0441H57.4722C58.0244 21.0441 58.4722 21.4918 58.4722 22.0441V30.7056C58.4722 31.2579 58.0244 31.7056 57.4722 31.7056H53.8471C53.2948 31.7056 52.8471 31.2579 52.8471 30.7056V26.7862C52.8471 26.2339 52.3993 25.7862 51.8471 25.7862H34.3554Z" fill="#0063FC"/>
<path d="M26.1623 17.8003C25.9424 18.2814 25.3859 18.508 24.8925 18.3174L14.4089 14.2675C14.0563 14.1314 13.6591 14.2076 13.3686 14.4494C10.4647 16.8657 6.40662 18.3679 2.05275 18.5945C1.49865 18.6234 1.04653 18.1722 1.04653 17.6174V14.5724C1.04653 14.0261 1.4856 13.5841 2.03031 13.5421C5.25228 13.2937 8.31146 12.0773 10.1571 10.1486C10.6868 9.59495 10.235 8.78004 9.46875 8.78004H2.5371C1.98481 8.78004 1.53709 8.33232 1.53709 7.78004V4.7763C1.53709 4.22402 1.98481 3.77631 2.53709 3.77631H25.7193C26.2716 3.77631 26.7193 4.22402 26.7193 4.77631V7.78004C26.7193 8.33232 26.2716 8.78004 25.7193 8.78004H17.817C17.5134 8.78004 17.2505 8.9899 17.1461 9.27493C17.0145 9.63392 17.1783 10.0392 17.5359 10.1744L26.8632 13.6999C27.4046 13.9045 27.6598 14.5246 27.4191 15.051L26.1623 17.8003ZM27.2564 20.6516C27.8086 20.6516 28.2564 21.0993 28.2564 21.6516V24.7535C28.2564 25.3058 27.8086 25.7535 27.2564 25.7535H17.9407C17.3885 25.7535 16.9407 26.2012 16.9407 26.7535V31.0327C16.9407 31.585 16.493 32.0327 15.9407 32.0327H12.3156C11.7633 32.0327 11.3156 31.585 11.3156 31.0327V26.7535C11.3156 26.2012 10.8679 25.7535 10.3156 25.7535H1C0.447717 25.7535 0 25.3058 0 24.7535V21.6516C0 21.0994 0.447715 20.6516 1 20.6516H27.2564Z" fill="#0063FC"/>
<path fill-rule="evenodd" clip-rule="evenodd" d="M104.111 3.8814C104.79 3.8814 105.441 3.92589 106.061 4.01227C105.994 4.65382 106.031 5.29445 106.382 5.57098C106.982 6.04311 107.813 5.67298 108.263 5.47251C108.401 5.41078 108.504 5.36513 108.552 5.36513C108.627 5.43927 108.647 5.56015 108.672 5.70612C108.717 5.96541 108.775 6.30388 109.17 6.60021C109.617 6.93576 110.153 6.74901 110.521 6.62063C110.661 6.57182 110.776 6.53145 110.854 6.53145C110.862 6.53288 110.869 6.53403 110.877 6.53491C110.966 6.56514 110.875 6.79054 110.744 7.11313C110.511 7.68956 110.152 8.57631 110.47 9.21421C110.88 10.0328 112.518 10.1957 113.154 10.2282C113.186 10.5039 113.203 10.7868 113.203 11.0763C113.203 15.4587 109.54 18.2712 104.111 18.2712C98.682 18.2712 95.0191 15.4587 95.0191 11.0763C95.0191 6.72665 98.682 3.8814 104.111 3.8814ZM116.473 4.84869C116.473 4.29641 116.921 3.84869 117.473 3.84869H121C121.552 3.84869 122 4.29641 122 4.84869V17.3039C122 17.8562 121.552 18.3039 121 18.3039H117.473C116.921 18.3039 116.473 17.8562 116.473 17.3039V4.84869ZM100.513 11.0763C100.513 12.7442 101.92 13.8234 104.111 13.8234C106.302 13.8234 107.708 12.7442 107.708 11.0763C107.708 9.72181 106.781 8.75555 105.259 8.44023V9.68787H103.2V8.3971C101.538 8.65799 100.513 9.65273 100.513 11.0763ZM116.571 21.1165C116.571 20.105 117.391 19.285 118.403 19.285H121.095C121.595 19.285 122 19.6901 122 20.1898V30.778C122 31.3303 121.552 31.778 121 31.778H98.3411C97.7888 31.778 97.3411 31.3303 97.3411 30.778V20.1898C97.3411 19.6901 97.7462 19.285 98.2459 19.285H100.939C101.95 19.285 102.77 20.105 102.77 21.1165H116.571ZM102.77 26.6928C102.77 26.9974 102.998 27.2541 103.301 27.2883C108.275 27.8512 111.229 27.8494 116.001 27.2949C116.326 27.2571 116.571 26.9808 116.571 26.6534C116.571 26.1945 116.107 25.8775 115.668 26.0141C112.135 27.116 106.794 27.2055 103.684 26.0918C103.258 25.9391 102.77 26.2398 102.77 26.6928Z" fill="#0063FC"/>
</svg>
