<svg width="335" height="335" viewBox="0 0 335 335" fill="none" xmlns="http://www.w3.org/2000/svg">
<path d="M282.683 170.556C282.683 161.1 281.897 154.2 280.198 147.045H169.695V189.722H234.558C233.251 200.328 226.189 216.3 210.496 227.033L210.276 228.462L245.215 254.909L247.636 255.145C269.866 235.083 282.683 205.567 282.683 170.556Z" fill="#4285F4"/>
<path d="M169.695 283C201.473 283 228.15 272.777 247.636 255.145L210.496 227.033C200.558 233.805 187.219 238.533 169.695 238.533C138.572 238.533 112.156 218.472 102.739 190.745L101.359 190.859L65.0291 218.331L64.554 219.622C83.9081 257.188 123.663 283 169.695 283Z" fill="#34A853"/>
<path d="M102.739 190.744C100.255 183.589 98.8167 175.922 98.8167 168C98.8167 160.077 100.255 152.411 102.609 145.255L102.543 143.731L65.7574 115.818L64.5539 116.377C56.5771 131.966 52 149.472 52 168C52 186.528 56.5771 204.033 64.5539 219.622L102.739 190.744Z" fill="#FBBC05"/>
<path d="M169.695 97.4664C191.796 97.4664 206.703 106.794 215.204 114.589L248.42 82.9C228.02 64.3723 201.473 53 169.695 53C123.663 53 83.9081 78.8109 64.554 116.377L102.609 145.255C112.156 117.528 138.572 97.4664 169.695 97.4664Z" fill="#EB4335"/>
</svg>
