<svg width="335" height="335" viewBox="0 0 335 335" fill="none" xmlns="http://www.w3.org/2000/svg">
<g clip-path="url(#clip0_131_1027)">
<path d="M254.672 124.173C253.523 124.878 228.248 139.537 228.535 170.032C228.853 206.508 260.635 218.655 261 218.792C260.715 219.661 255.919 236.093 244.247 253.063C234.16 267.765 223.711 282.383 207.22 282.688C191.017 282.984 185.796 273.112 167.286 273.112C148.766 273.112 142.969 282.383 127.647 282.984C111.729 283.584 99.6104 267.108 89.4492 252.487C68.6767 222.565 52.7946 167.926 74.1206 131.052C84.708 112.739 103.632 101.137 124.165 100.838C139.802 100.543 154.549 111.309 164.114 111.309C173.542 111.309 190.44 98.759 210.358 100.227C218.165 100.803 240.325 103.124 254.672 124.173ZM198.068 80.4743C206.527 70.2902 212.219 56.107 210.652 42C198.477 42.481 183.751 50.0786 175.019 60.2563C167.199 69.2721 160.331 83.7119 162.195 97.531C175.766 98.5755 189.616 90.6648 198.068 80.4743Z" fill="black"/>
</g>
<defs>
<clipPath id="clip0_131_1027">
<rect width="335" height="335" fill="white"/>
</clipPath>
</defs>
</svg>
