<svg width="335" height="335" viewBox="0 0 335 335" fill="none" xmlns="http://www.w3.org/2000/svg">
<path d="M72.247 193.176C72.247 202.431 74.2835 209.537 76.9454 213.836C80.4354 219.467 85.6409 221.852 90.9477 221.852C97.7926 221.852 104.054 220.158 116.122 203.51C125.789 190.166 137.18 171.436 144.844 159.694L157.824 139.801C166.841 125.986 177.277 110.627 189.243 100.217C199.012 91.7204 209.549 87 220.155 87C237.96 87 254.919 97.2922 267.899 116.595C282.104 137.736 289 164.364 289 191.844C289 208.18 285.772 220.183 280.279 229.666C274.972 238.837 264.629 248 247.23 248V221.852C262.128 221.852 265.846 208.197 265.846 192.569C265.846 170.299 260.64 145.584 249.173 127.924C241.035 115.398 230.489 107.745 218.887 107.745C206.338 107.745 196.24 117.185 184.891 134.019C178.857 142.962 172.663 153.861 165.709 166.16L158.052 179.689C142.673 206.89 138.777 213.086 131.087 223.311C117.609 241.214 106.099 248 90.9477 248C72.9737 248 61.6079 240.237 54.5687 228.537C48.8224 219.003 46 206.494 46 192.24L72.247 193.176Z" fill="#0081FB"/>
<path d="M66 118.441C78.071 99.939 95.4909 87 115.471 87C127.042 87 138.545 90.4054 150.556 100.158C163.695 110.821 177.699 128.38 195.17 157.317L201.434 167.702C216.557 192.754 225.161 205.643 230.196 211.72C236.673 219.526 241.208 221.852 247.099 221.852C262.044 221.852 265.773 208.197 265.773 192.569L289 191.844C289 208.18 285.762 220.183 280.252 229.666C274.928 238.837 264.553 248 247.099 248C236.249 248 226.636 245.657 216.006 235.685C207.834 228.031 198.281 214.434 190.932 202.212L169.07 165.898C158.101 147.674 148.039 134.086 142.215 127.933C135.951 121.316 127.898 113.325 115.047 113.325C104.646 113.325 95.813 120.582 88.4212 131.684L66 118.441Z" fill="url(#paint0_linear_131_1022)"/>
<path d="M115.578 113.411C105.211 113.411 96.4068 120.692 89.0392 131.83C78.6216 147.568 72.2426 171.011 72.2426 193.523C72.2426 202.809 74.2788 209.938 76.9403 214.251L54.5673 229C48.822 219.435 46 206.885 46 192.585C46 166.58 53.131 139.475 66.6916 118.544C78.723 99.9814 96.0857 87 116 87L115.578 113.411Z" fill="url(#paint1_linear_131_1022)"/>
<defs>
<linearGradient id="paint0_linear_131_1022" x1="96.9489" y1="185.623" x2="264.785" y2="194.147" gradientUnits="userSpaceOnUse">
<stop stop-color="#0064E1"/>
<stop offset="0.4" stop-color="#0064E1"/>
<stop offset="0.83" stop-color="#0073EE"/>
<stop offset="1" stop-color="#0082FB"/>
</linearGradient>
<linearGradient id="paint1_linear_131_1022" x1="84.0205" y1="204.551" x2="84.0205" y2="142.816" gradientUnits="userSpaceOnUse">
<stop stop-color="#0082FB"/>
<stop offset="1" stop-color="#0064E0"/>
</linearGradient>
</defs>
</svg>
