<svg width="335" height="335" viewBox="0 0 335 335" fill="none" xmlns="http://www.w3.org/2000/svg">
<path d="M132.276 130.883V114.295C133.907 114.193 135.538 114.09 137.17 114.09C182.436 112.657 212.103 153.204 212.103 153.204C212.103 153.204 180.091 197.848 145.734 197.848C141.146 197.848 136.66 197.131 132.378 195.697V145.32C150.015 147.47 153.584 155.252 164.085 172.966L187.635 153.102C187.635 153.102 170.406 130.473 141.452 130.473C138.393 130.371 135.335 130.575 132.276 130.883ZM132.276 76V100.779L137.17 100.472C200.073 98.3216 241.159 152.283 241.159 152.283C241.159 152.283 194.058 209.827 145.02 209.827C140.738 209.827 136.558 209.418 132.378 208.701V224.06C135.844 224.47 139.413 224.777 142.879 224.777C188.553 224.777 221.585 201.329 253.597 173.683C258.899 177.983 280.614 188.325 285.1 192.83C254.719 218.428 183.863 239.009 143.695 239.009C139.82 239.009 136.15 238.805 132.48 238.395V260H306V76L132.276 76ZM132.276 195.697V208.804C90.0685 201.226 78.3441 157.095 78.3441 157.095C78.3441 157.095 98.6323 134.569 132.276 130.883V145.218H132.174C114.537 143.067 100.671 159.655 100.671 159.655C100.671 159.655 108.522 187.608 132.276 195.697ZM57.3423 155.252C57.3423 155.252 82.3202 118.186 132.378 114.295V100.779C76.9168 105.284 29 152.385 29 152.385C29 152.385 56.1189 231.228 132.276 238.395V224.06C76.4071 217.097 57.3423 155.252 57.3423 155.252Z" fill="#76B900"/>
</svg>
