<svg width="335" height="335" viewBox="0 0 335 335" fill="none" xmlns="http://www.w3.org/2000/svg">
<path d="M236.344 194.049L228.426 181.767C225.986 177.982 224.688 173.569 224.688 169.06V117.469C224.688 96.8747 226.174 53 167.594 53C119.938 53 105.201 78.4908 100.645 94.2572C98.8356 100.516 103.087 106.89 109.546 107.559L128.017 109.472C132.365 109.922 136.534 107.605 138.419 103.648C142 96.1312 148.241 84.9368 167.501 84.9368C174.962 84.9368 185.454 88.1041 185.454 97.365C185.454 110.802 185.436 117.171 185.436 117.171C185.486 119.975 183.235 122.276 180.44 122.276H162.386C148.764 122.276 97 129.287 97 181.242C97 233.197 151.928 227.219 155.575 226.362C162.379 224.761 175.127 220.088 187.108 208.621C189.121 206.695 192.332 206.863 194.08 209.034L203.755 221.05C207.515 225.721 214.433 226.212 218.812 222.12L234.715 207.253C238.375 203.831 239.062 198.265 236.344 194.049ZM156.937 191.154C138.547 191.154 139.071 174.466 143.314 166.544C147.284 159.131 157.774 145.991 185.935 145.096L186.182 158.885C186.365 169.135 181.667 178.981 173.314 184.88C168.138 188.536 162.491 191.154 156.937 191.154Z" fill="#171715"/>
<path d="M36.0936 237.739C33.305 235.219 36.3395 230.756 39.7106 232.417C63.4032 244.088 108.007 262.132 157.311 262.132C207.696 262.132 249.846 250.098 271.061 242.67C274.511 241.462 276.996 245.978 274.156 248.279C257.325 261.911 221.18 283 158.636 283C96.3257 283 55.851 255.593 36.0936 237.739Z" fill="#FFAC35"/>
<path d="M248.857 230.393C255.429 225.527 271.759 217.138 296.164 224.473C298.406 225.147 299.935 227.222 299.952 229.564C300.011 237.57 298.286 256.368 282.613 271.989C281.525 273.073 279.692 272.009 280.095 270.526C282.772 260.669 288.213 239.527 286.487 236.577C284.507 233.196 259.774 233.034 249.752 233.109C248.29 233.121 247.682 231.263 248.857 230.393Z" fill="#FFAC35"/>
</svg>
