<svg width="60" height="60" viewBox="0 0 60 60" fill="none" xmlns="http://www.w3.org/2000/svg">
<rect x="0.5" y="0.5" width="59" height="59" rx="29.5" stroke="#8E98A8" stroke-dasharray="2 2"/>
<path opacity="0.2" d="M42.3303 34.755L40.9121 32.5552C40.475 31.8772 40.2425 31.0869 40.2425 30.2793V21.039C40.2425 17.3506 40.5088 9.49243 30.0167 9.49243C21.4814 9.49243 18.842 14.058 18.0259 16.8818C17.7019 18.0028 18.4633 19.1444 19.6202 19.2642L22.9284 19.6067C23.7071 19.6873 24.4538 19.2725 24.7915 18.5637C25.4328 17.2174 26.5506 15.2124 30.0001 15.2124C31.3364 15.2124 33.2155 15.7797 33.2155 17.4384C33.2155 19.8451 33.2123 20.9857 33.2123 20.9857C33.2213 21.4879 32.8181 21.9 32.3176 21.9H29.0841C26.6442 21.9 17.3731 23.1558 17.3731 32.4612C17.3731 41.7666 27.211 40.6959 27.8642 40.5423C29.0828 40.2556 31.366 39.4186 33.5118 37.3649C33.8723 37.0199 34.4475 37.05 34.7606 37.4388L36.4934 39.591C37.1669 40.4276 38.4059 40.5155 39.1901 39.7825L42.0384 37.1199C42.694 36.5069 42.8171 35.5101 42.3303 34.755ZM28.108 34.2365C24.8143 34.2365 24.9082 31.2476 25.6682 29.8287C26.3793 28.501 28.258 26.1475 33.3017 25.9872L33.3459 28.4569C33.3788 30.2927 32.5374 32.0561 31.0412 33.1127C30.1142 33.7675 29.1028 34.2365 28.108 34.2365Z" fill="#171715"/>
<g opacity="0.2">
<path d="M6.46454 42.5801C5.96509 42.1288 6.50859 41.3295 7.11237 41.6269C11.3558 43.7173 19.3445 46.9491 28.1751 46.9491C37.1992 46.9491 44.7486 44.7936 48.5483 43.4633C49.1661 43.247 49.6113 44.0557 49.1027 44.4678C46.0881 46.9094 39.6143 50.6866 28.4124 50.6866C17.2524 50.6866 10.0032 45.7779 6.46454 42.5801Z" fill="#FFAC35"/>
<path d="M44.5714 41.2645C45.7486 40.3929 48.6732 38.8903 53.0442 40.2041C53.4459 40.3248 53.7197 40.6964 53.7227 41.1158C53.7333 42.5498 53.4243 45.9166 50.6172 48.7144C50.4224 48.9086 50.0942 48.718 50.1663 48.4524C50.6457 46.687 51.6202 42.9003 51.3111 42.372C50.9566 41.7663 46.5267 41.7375 44.7318 41.7509C44.4699 41.7529 44.3609 41.4203 44.5714 41.2645Z" fill="#FFAC35"/>
</g>
</svg>
