<svg width="60" height="60" viewBox="0 0 60 60" fill="none" xmlns="http://www.w3.org/2000/svg">
<g clip-path="url(#clip0_134_889)">
<g opacity="0.2">
<path d="M47.1731 22.9117C46.9579 23.0439 42.2242 25.7891 42.278 31.5003C42.3375 38.3314 48.2898 40.6062 48.3582 40.632C48.3049 40.7947 47.4065 43.872 45.2206 47.0502C43.3314 49.8036 41.3745 52.5413 38.2858 52.5984C35.2514 52.6538 34.2734 50.805 30.8069 50.805C27.3382 50.805 26.2525 52.5413 23.383 52.6538C20.4018 52.7662 18.132 49.6805 16.229 46.9424C12.3386 41.3386 9.36405 31.1058 13.3581 24.2C15.341 20.7704 18.8852 18.5976 22.7307 18.5415C25.6594 18.4864 28.4213 20.5027 30.2127 20.5027C31.9785 20.5027 35.1433 18.1523 38.8736 18.4272C40.3357 18.5351 44.4861 18.9697 47.1731 22.9117ZM36.5719 14.7279C38.1562 12.8206 39.2221 10.1644 38.9286 7.52246C36.6484 7.61254 33.8906 9.03541 32.255 10.9415C30.7904 12.63 29.5042 15.3342 29.8534 17.9223C32.3949 18.1179 34.9889 16.6364 36.5719 14.7279Z" fill="black"/>
</g>
</g>
<rect x="0.5" y="0.5" width="59" height="59" rx="29.5" stroke="#8E98A8" stroke-dasharray="2 2"/>
<defs>
<clipPath id="clip0_134_889">
<rect width="60" height="60" rx="30" fill="white"/>
</clipPath>
</defs>
</svg>
