<svg width="60" height="60" viewBox="0 0 60 60" fill="none" xmlns="http://www.w3.org/2000/svg">
<rect x="0.5" y="0.5" width="59" height="59" rx="29.5" stroke="#8E98A8" stroke-dasharray="2 2"/>
<g opacity="0.2">
<path d="M50.6298 30.5471C50.6298 28.8536 50.4891 27.6178 50.1847 26.3362H30.3932V33.9799H42.0104C41.7763 35.8794 40.5115 38.7401 37.7008 40.6624L37.6614 40.9183L43.9191 45.6551L44.3527 45.6974C48.3343 42.1043 50.6298 36.8177 50.6298 30.5471Z" fill="#4285F4"/>
<path d="M30.3932 50.6865C36.0847 50.6865 40.8627 48.8555 44.3527 45.6974L37.7008 40.6625C35.9208 41.8754 33.5317 42.7222 30.3932 42.7222C24.8188 42.7222 20.0876 39.1292 18.4011 34.1631L18.1539 34.1836L11.647 39.104L11.5619 39.3351C15.0283 46.0634 22.1486 50.6865 30.3932 50.6865Z" fill="#34A853"/>
<path d="M18.4011 34.1631C17.9561 32.8815 17.6985 31.5083 17.6985 30.0895C17.6985 28.6705 17.9561 27.2974 18.3777 26.0158L18.3659 25.7429L11.7775 20.7434L11.5619 20.8436C10.1332 23.6357 9.31345 26.7711 9.31345 30.0895C9.31345 33.4079 10.1332 36.5431 11.5619 39.3352L18.4011 34.1631Z" fill="#FBBC05"/>
<path d="M30.3932 17.4566C34.3515 17.4566 37.0215 19.1272 38.544 20.5233L44.4932 14.8477C40.8395 11.5293 36.0847 9.49243 30.3932 9.49243C22.1486 9.49243 15.0283 14.1153 11.5619 20.8436L18.3777 26.0158C20.0876 21.0496 24.8188 17.4566 30.3932 17.4566Z" fill="#EB4335"/>
</g>
</svg>
