<svg width="60" height="60" viewBox="0 0 60 60" fill="none" xmlns="http://www.w3.org/2000/svg">
<rect x="0.5" y="0.5" width="59" height="59" rx="29.5" stroke="#8E98A8" stroke-dasharray="2 2"/>
<path opacity="0.2" d="M12.9398 34.5986C12.9398 36.2563 13.3045 37.529 13.7813 38.2989C14.4064 39.3074 15.3387 39.7347 16.2892 39.7347C17.5151 39.7347 18.6366 39.4312 20.7979 36.4495C22.5294 34.0596 24.5696 30.705 25.9423 28.6019L28.2671 25.039C29.882 22.5645 31.7511 19.8138 33.8943 17.9493C35.6439 16.4275 37.5312 15.582 39.4307 15.582C42.6196 15.582 45.6572 17.4254 47.982 20.8827C50.5262 24.6691 51.7612 29.4383 51.7612 34.36C51.7612 37.2859 51.1831 39.4357 50.1993 41.1342C49.2488 42.7768 47.3963 44.4179 44.28 44.4179V39.7347C46.9483 39.7347 47.6142 37.2889 47.6142 34.4899C47.6142 30.5012 46.6819 26.0746 44.6281 22.9118C43.1706 20.6683 41.2817 19.2975 39.2037 19.2975C36.9561 19.2975 35.1475 20.9884 33.1148 24.0033C32.0342 25.6051 30.9248 27.5572 29.6792 29.7599L28.3079 32.183C25.5533 37.0549 24.8556 38.1646 23.4783 39.9959C21.0643 43.2025 19.0029 44.4179 16.2892 44.4179C13.0699 44.4179 11.0343 43.0274 9.77353 40.9319C8.74434 39.2244 8.23883 36.9839 8.23883 34.431L12.9398 34.5986Z" fill="#0081FB"/>
<path opacity="0.2" d="M11.8209 21.2133C13.9829 17.8995 17.1029 15.582 20.6814 15.582C22.7538 15.582 24.814 16.192 26.9654 17.9387C29.3186 19.8485 31.8267 22.9933 34.9558 28.1762L36.0778 30.0362C38.7864 34.5231 40.3274 36.8315 41.2292 37.92C42.3891 39.318 43.2014 39.7347 44.2566 39.7347C46.9332 39.7347 47.6012 37.2889 47.6012 34.4899L51.7612 34.36C51.7612 37.2859 51.1812 39.4357 50.1944 41.1342C49.2409 42.7768 47.3826 44.4179 44.2566 44.4179C42.3132 44.4179 40.5915 43.9982 38.6877 42.2121C37.2241 40.8413 35.513 38.4061 34.1967 36.217L30.2812 29.7131C28.3166 26.4491 26.5144 24.0154 25.4714 22.9133C24.3494 21.7281 22.9071 20.2969 20.6054 20.2969C18.7426 20.2969 17.1606 21.5968 15.8367 23.5851L11.8209 21.2133Z" fill="url(#paint0_linear_134_1084)"/>
<path opacity="0.2" d="M20.7005 20.3123C18.8437 20.3123 17.2669 21.6165 15.9473 23.6113C14.0815 26.4301 12.939 30.6288 12.939 34.6608C12.939 36.3239 13.3037 37.6008 13.7804 38.3733L9.77327 41.0149C8.74426 39.3018 8.23883 37.054 8.23883 34.4927C8.23883 29.8351 9.51602 24.9806 11.9448 21.2318C14.0997 17.9071 17.2094 15.582 20.7761 15.582L20.7005 20.3123Z" fill="url(#paint1_linear_134_1084)"/>
<defs>
<linearGradient id="paint0_linear_134_1084" x1="17.364" y1="33.2459" x2="47.4243" y2="34.7726" gradientUnits="userSpaceOnUse">
<stop stop-color="#0064E1"/>
<stop offset="0.4" stop-color="#0064E1"/>
<stop offset="0.83" stop-color="#0073EE"/>
<stop offset="1" stop-color="#0082FB"/>
</linearGradient>
<linearGradient id="paint1_linear_134_1084" x1="15.0485" y1="36.636" x2="15.0485" y2="25.5789" gradientUnits="userSpaceOnUse">
<stop stop-color="#0082FB"/>
<stop offset="1" stop-color="#0064E0"/>
</linearGradient>
</defs>
</svg>
