<svg width="60" height="60" viewBox="0 0 60 60" fill="none" xmlns="http://www.w3.org/2000/svg">
<rect x="0.5" y="0.5" width="59" height="59" rx="29.5" stroke="#8E98A8" stroke-dasharray="2 2"/>
<path opacity="0.2" d="M23.6912 23.4418V20.4709C23.9834 20.4525 24.2755 20.4342 24.5677 20.4342C32.6751 20.1774 37.9887 27.4397 37.9887 27.4397C37.9887 27.4397 32.2551 35.4355 26.1015 35.4355C25.2798 35.4355 24.4764 35.3071 23.7095 35.0504V26.0276C26.8684 26.4127 27.5075 27.8065 29.3883 30.9791L33.6063 27.4213C33.6063 27.4213 30.5204 23.3684 25.3346 23.3684C24.7868 23.3501 24.239 23.3868 23.6912 23.4418ZM23.6912 13.6121V18.0501L24.5677 17.9951C35.834 17.61 43.1927 27.2746 43.1927 27.2746C43.1927 27.2746 34.7567 37.5812 25.9737 37.5812C25.2068 37.5812 24.4581 37.5078 23.7095 37.3794V40.1303C24.3303 40.2036 24.9694 40.2587 25.5903 40.2587C33.7707 40.2587 39.6868 36.059 45.4204 31.1075C46.3699 31.8777 50.2593 33.73 51.0627 34.5369C45.6213 39.1216 32.9307 42.8078 25.7363 42.8078C25.0425 42.8078 24.3851 42.7711 23.7278 42.6978V46.5673H54.806V13.6121L23.6912 13.6121ZM23.6912 35.0504V37.3978C16.1317 36.0407 14.0318 28.1366 14.0318 28.1366C14.0318 28.1366 17.6655 24.102 23.6912 23.4418V26.0092H23.673C20.514 25.6241 18.0307 28.595 18.0307 28.595C18.0307 28.595 19.4367 33.6016 23.6912 35.0504ZM10.2703 27.8065C10.2703 27.8065 14.7439 21.1677 23.7095 20.4709V18.0501C13.7761 18.857 5.19403 27.293 5.19403 27.293C5.19403 27.293 10.0511 41.414 23.6912 42.6978V40.1303C13.6848 38.8832 10.2703 27.8065 10.2703 27.8065Z" fill="#76B900"/>
</svg>
