<svg width="44" height="44" viewBox="0 0 44 44" fill="none" xmlns="http://www.w3.org/2000/svg">
<mask id="path-1-inside-1_53_277" fill="white">
<path fill-rule="evenodd" clip-rule="evenodd" d="M9.81727 18.2446C9.30352 18.6213 9 19.2203 9 19.8574V32.949C9 34.0536 9.89543 34.949 11 34.949H19.1717V26.625C19.1717 26.0727 19.6194 25.625 20.1717 25.625H23.2575C23.8098 25.625 24.2575 26.0727 24.2575 26.625V34.949H32.4292C33.5337 34.949 34.4292 34.0536 34.4292 32.949V19.8574C34.4292 19.2203 34.1257 18.6213 33.6119 18.2446L22.8973 10.3872C22.1933 9.87094 21.2358 9.87094 20.5319 10.3872L9.81727 18.2446Z"/>
</mask>
<path d="M9.81727 18.2446L11.5914 20.6638H11.5914L9.81727 18.2446ZM19.1717 34.949V37.949H22.1717V34.949H19.1717ZM24.2575 34.949H21.2575V37.949H24.2575V34.949ZM33.6119 18.2446L31.8378 20.6638L33.6119 18.2446ZM22.8973 10.3872L24.6714 7.96797L24.6714 7.96797L22.8973 10.3872ZM20.5319 10.3872L18.7578 7.96797L18.7578 7.96798L20.5319 10.3872ZM12 19.8574C12 20.1759 11.8482 20.4754 11.5914 20.6638L8.04318 15.8253C6.75881 16.7672 6 18.2646 6 19.8574H12ZM12 32.949V19.8574H6V32.949H12ZM11 31.949C11.5523 31.949 12 32.3967 12 32.949H6C6 35.7105 8.23857 37.949 11 37.949V31.949ZM19.1717 31.949H11V37.949H19.1717V31.949ZM22.1717 34.949V26.625H16.1717V34.949H22.1717ZM22.1717 26.625C22.1717 27.7296 21.2763 28.625 20.1717 28.625V22.625C17.9626 22.625 16.1717 24.4159 16.1717 26.625H22.1717ZM20.1717 28.625H23.2575V22.625H20.1717V28.625ZM23.2575 28.625C22.153 28.625 21.2575 27.7296 21.2575 26.625H27.2575C27.2575 24.4159 25.4667 22.625 23.2575 22.625V28.625ZM21.2575 26.625V34.949H27.2575V26.625H21.2575ZM32.4292 31.949H24.2575V37.949H32.4292V31.949ZM31.4292 32.949C31.4292 32.3967 31.8769 31.949 32.4292 31.949V37.949C35.1906 37.949 37.4292 35.7104 37.4292 32.949H31.4292ZM31.4292 19.8574V32.949H37.4292V19.8574H31.4292ZM31.8378 20.6638C31.5809 20.4754 31.4292 20.1759 31.4292 19.8574H37.4292C37.4292 18.2646 36.6704 16.7672 35.386 15.8253L31.8378 20.6638ZM21.1232 12.8064L31.8378 20.6638L35.386 15.8253L24.6714 7.96797L21.1232 12.8064ZM22.3059 12.8064C21.954 13.0645 21.4752 13.0645 21.1232 12.8064L24.6714 7.96797C22.9114 6.67734 20.5177 6.67734 18.7578 7.96797L22.3059 12.8064ZM11.5914 20.6638L22.3059 12.8064L18.7578 7.96798L8.04318 15.8253L11.5914 20.6638Z" fill="#8E98A8" mask="url(#path-1-inside-1_53_277)"/>
</svg>
