<svg width="44" height="44" viewBox="0 0 44 44" fill="none" xmlns="http://www.w3.org/2000/svg">
<path fill-rule="evenodd" clip-rule="evenodd" d="M24.0732 14.4878C24.0732 15.8618 22.9593 16.9756 21.5854 16.9756C20.2114 16.9756 19.0975 15.8618 19.0975 14.4878C19.0975 13.1138 20.2114 12 21.5854 12C22.9593 12 24.0732 13.1138 24.0732 14.4878ZM27.0732 14.4878C27.0732 17.5186 24.6162 19.9756 21.5854 19.9756C18.5545 19.9756 16.0975 17.5186 16.0975 14.4878C16.0975 11.457 18.5545 9 21.5854 9C24.6162 9 27.0732 11.457 27.0732 14.4878ZM13 34H10V32.7805C10 26.3821 15.1869 21.1952 21.5854 21.1952C27.9838 21.1952 33.1707 26.3821 33.1707 32.7805V34H30.1707V32.7805C30.1707 28.039 26.3269 24.1952 21.5854 24.1952C16.8438 24.1952 13 28.039 13 32.7805V34Z" fill="#0063FC"/>
</svg>
