<svg width="44" height="44" viewBox="0 0 44 44" fill="none" xmlns="http://www.w3.org/2000/svg">
<path fill-rule="evenodd" clip-rule="evenodd" d="M20.9101 10.6351L21.0781 10.118L21.2461 10.6351C21.4469 11.2531 22.0228 11.6716 22.6727 11.6716H23.2164L22.7765 11.9911C22.2508 12.3731 22.0308 13.0502 22.2316 13.6682L22.3996 14.1853L21.9598 13.8657C21.434 13.4837 20.7221 13.4837 20.1964 13.8657L19.7566 14.1853L19.9246 13.6682C20.1254 13.0502 19.9054 12.3731 19.3797 11.9911L18.9398 11.6716H19.4835C20.1333 11.6716 20.7093 11.2531 20.9101 10.6351ZM20.6026 8.34549C20.7522 7.88484 21.4039 7.88484 21.5536 8.34549L22.1972 10.3261C22.2641 10.5321 22.4561 10.6716 22.6727 10.6716H24.7552C25.2396 10.6716 25.4409 11.2914 25.0491 11.5761L23.3643 12.8002C23.1891 12.9275 23.1157 13.1532 23.1827 13.3592L23.8262 15.3398C23.9759 15.8004 23.4486 16.1835 23.0568 15.8988L21.372 14.6747C21.1967 14.5474 20.9594 14.5474 20.7842 14.6747L19.0994 15.8988C18.7075 16.1835 18.1803 15.8004 18.33 15.3398L18.9735 13.3592C19.0405 13.1532 18.9671 12.9275 18.7919 12.8002L17.1071 11.5761C16.7152 11.2914 16.9166 10.6716 17.401 10.6716H19.4835C19.7001 10.6716 19.8921 10.5321 19.959 10.3261L20.6026 8.34549ZM15.5937 35.5695H15.5937V30.507H10.5312V35.5695H8V29.6632C8 28.7313 8.75552 27.9757 9.6875 27.9757H15.5937V19.5382C15.5937 18.6062 16.3492 17.8507 17.2812 17.8507H24.875C25.8069 17.8507 26.5625 18.6062 26.5625 19.5382V23.757H33.3125C34.2445 23.757 35 24.5125 35 25.4445V35.5695H32.4688V26.2882H26.5625V35.5695H24.0313V35.5695H24.0312V20.382H18.125V29.6527L18.125 29.6632V35.5695H15.5937V35.5695Z" fill="#8E98A8"/>
</svg>
