<svg width="44" height="44" viewBox="0 0 44 44" fill="none" xmlns="http://www.w3.org/2000/svg">
<path fill-rule="evenodd" clip-rule="evenodd" d="M21.9101 10.6351L22.0781 10.118L22.2461 10.6351C22.4469 11.2531 23.0228 11.6716 23.6727 11.6716H24.2164L23.7765 11.9911C23.2508 12.3731 23.0308 13.0502 23.2316 13.6682L23.3996 14.1853L22.9598 13.8657C22.434 13.4837 21.7221 13.4837 21.1964 13.8657L20.7566 14.1853L20.9246 13.6682C21.1254 13.0502 20.9054 12.3731 20.3797 11.9911L19.9398 11.6716H20.4835C21.1333 11.6716 21.7093 11.2531 21.9101 10.6351ZM21.6026 8.34549C21.7522 7.88484 22.4039 7.88484 22.5536 8.34549L23.1972 10.3261C23.2641 10.5321 23.4561 10.6716 23.6727 10.6716H25.7552C26.2396 10.6716 26.4409 11.2914 26.0491 11.5761L24.3643 12.8002C24.1891 12.9275 24.1157 13.1532 24.1827 13.3592L24.8262 15.3398C24.9759 15.8004 24.4486 16.1835 24.0568 15.8988L22.372 14.6747C22.1967 14.5474 21.9594 14.5474 21.7842 14.6747L20.0994 15.8988C19.7075 16.1835 19.1803 15.8004 19.33 15.3398L19.9735 13.3592C20.0405 13.1532 19.9671 12.9275 19.7919 12.8002L18.1071 11.5761C17.7152 11.2914 17.9166 10.6716 18.401 10.6716H20.4835C20.7001 10.6716 20.8921 10.5321 20.959 10.3261L21.6026 8.34549ZM19.125 35.5695H16.5937V30.507H11.5312V35.5695H9V29.6632C9 28.7312 9.75552 27.9757 10.6875 27.9757H16.5937V19.5382C16.5937 18.6062 17.3492 17.8507 18.2812 17.8507H25.875C26.8069 17.8507 27.5625 18.6062 27.5625 19.5382V23.757H34.3125C35.2445 23.757 36 24.5125 36 25.4445V35.5695H33.4687V26.2882H27.5625V35.5695L27.5625 35.5695L25.0312 35.5695L25.0312 35.5695V20.382H19.125V29.6526L19.125 29.6632V35.5695L19.125 35.5695Z" fill="#0063FC"/>
</svg>
