<svg width="44" height="44" viewBox="0 0 44 44" fill="none" xmlns="http://www.w3.org/2000/svg">
<path fill-rule="evenodd" clip-rule="evenodd" d="M36.2263 11.4966C36.7766 10.8774 36.7209 9.92928 36.1017 9.3789C35.4825 8.82853 34.5344 8.8843 33.984 9.50347L25.3802 19.1828C25.1625 19.4277 24.7721 19.4005 24.5904 19.1279L21.8359 14.9944C20.5919 13.1275 17.9373 12.8966 16.3896 14.5208L8.66424 22.6276C8.09273 23.2273 8.11561 24.1768 8.71534 24.7483C9.31507 25.3198 10.2645 25.2969 10.836 24.6972L18.5614 16.5904C18.7825 16.3583 19.1617 16.3913 19.3395 16.658L22.0939 20.7915C23.3657 22.7 26.0987 22.8901 27.6224 21.1759L36.2263 11.4966ZM9.3126 31.538C8.58767 31.538 8 32.1257 8 32.8506C8 33.5755 8.58767 34.1632 9.3126 34.1632H34.6895C35.4144 34.1632 36.0021 33.5755 36.0021 32.8506C36.0021 32.1257 35.4144 31.538 34.6895 31.538H9.3126Z" fill="#8E98A8"/>
</svg>
